<?xml version="1.0" encoding="UTF-8" standalone="no"?>
<!-- Created with Inkscape (http://www.inkscape.org/) -->

<svg
   xmlns:dc="http://purl.org/dc/elements/1.1/"
   xmlns:cc="http://creativecommons.org/ns#"
   xmlns:rdf="http://www.w3.org/1999/02/22-rdf-syntax-ns#"
   xmlns:svg="http://www.w3.org/2000/svg"
   xmlns="http://www.w3.org/2000/svg"
   xmlns:sodipodi="http://sodipodi.sourceforge.net/DTD/sodipodi-0.dtd"
   xmlns:inkscape="http://www.inkscape.org/namespaces/inkscape"
   width="744.09448819"
   height="1052.3622047"
   id="svg2"
   version="1.1"
   inkscape:version="0.48.4 r9939"
   sodipodi:docname="methods.pca.figures.svg">
  <sodipodi:namedview
     id="base"
     pagecolor="#ffffff"
     bordercolor="#666666"
     borderopacity="1.0"
     inkscape:pageopacity="0.0"
     inkscape:pageshadow="2"
     inkscape:zoom="1.4"
     inkscape:cx="320.34401"
     inkscape:cy="338.71681"
     inkscape:document-units="px"
     inkscape:current-layer="layer1"
     showgrid="false"
     inkscape:window-width="1133"
     inkscape:window-height="1071"
     inkscape:window-x="1874"
     inkscape:window-y="88"
     inkscape:window-maximized="0" />
  <defs
     id="defs4">
    <marker
       inkscape:stockid="Arrow1Mend"
       orient="auto"
       refY="0.0"
       refX="0.0"
       id="Arrow1Mend"
       style="overflow:visible;">
      <path
         id="path3821"
         d="M 0.0,0.0 L 5.0,-5.0 L -12.5,0.0 L 5.0,5.0 L 0.0,0.0 z "
         style="fill-rule:evenodd;stroke:#000000;stroke-width:1.0pt;"
         transform="scale(0.4) rotate(180) translate(10,0)" />
    </marker>
    <marker
       inkscape:stockid="Arrow2Mend"
       orient="auto"
       refY="0.0"
       refX="0.0"
       id="Arrow2Mend"
       style="overflow:visible;">
      <path
         id="path3839"
         style="fill-rule:evenodd;stroke-width:0.62500000;stroke-linejoin:round;"
         d="M 8.7185878,4.0337352 L -2.2072895,0.016013256 L 8.7185884,-4.0017078 C 6.9730900,-1.6296469 6.9831476,1.6157441 8.7185878,4.0337352 z "
         transform="scale(0.6) rotate(180) translate(0,0)" />
    </marker>
    <marker
       inkscape:stockid="Arrow1Mendz"
       orient="auto"
       refY="0.0"
       refX="0.0"
       id="Arrow1Mendz"
       style="overflow:visible;">
      <path
         id="path4813"
         d="M 0.0,0.0 L 5.0,-5.0 L -12.5,0.0 L 5.0,5.0 L 0.0,0.0 z "
         style="stroke:#ff0000;stroke-width:1.0pt;fill:#ff0000;fill-rule:evenodd"
         transform="scale(0.4) rotate(180) translate(10,0)" />
    </marker>
    <marker
       inkscape:stockid="Arrow1Mendl"
       orient="auto"
       refY="0.0"
       refX="0.0"
       id="Arrow1Mendl"
       style="overflow:visible;">
      <path
         id="path5633"
         d="M 0.0,0.0 L 5.0,-5.0 L -12.5,0.0 L 5.0,5.0 L 0.0,0.0 z "
         style="stroke:#ff0000;stroke-width:1.0pt;fill:#ff0000;fill-rule:evenodd"
         transform="scale(0.4) rotate(180) translate(10,0)" />
    </marker>
  </defs>
  <metadata
     id="metadata7">
    <rdf:RDF>
      <cc:Work
         rdf:about="">
        <dc:format>image/svg+xml</dc:format>
        <dc:type
           rdf:resource="http://purl.org/dc/dcmitype/StillImage" />
        <dc:title />
      </cc:Work>
    </rdf:RDF>
  </metadata>
  <g
     inkscape:label="Layer 1"
     inkscape:groupmode="layer"
     id="layer1">
    <rect
       style="fill:#ffffff;fill-rule:evenodd;stroke:#000000;stroke-width:1px;stroke-linecap:butt;stroke-linejoin:miter;stroke-opacity:1"
       id="rect3004"
       width="547.14288"
       height="395.71429"
       x="102.85714"
       y="60.933609" />
    <path
       style="fill:none;stroke:#000000;stroke-width:1px;stroke-linecap:butt;stroke-linejoin:miter;stroke-opacity:1"
       d="m 307.14286,483.07647 c 0.90681,4.53405 0.41983,2.39362 1.42857,6.42857 0.23809,0.95238 0.60587,1.88145 0.71428,2.85714 0,9.41848 -0.28873,-1.59558 0.71429,6.42857 0.23626,1.89006 -0.31314,3.83544 0,5.71429 0.0875,0.52515 0.54593,0.92349 0.71429,1.42857 0.0753,0.22588 -0.16836,0.54593 0,0.71429 0.16835,0.16836 0.47619,0 0.71428,0 0.2381,0 0.51618,0.13207 0.71429,0 1.73293,-1.15529 1.83664,-2.44881 2.85714,-4.28572 2.02187,-3.63936 2.60655,-3.82716 4.28571,-7.85714 0.57918,-1.39001 0.86932,-2.88757 1.42858,-4.28572 0.39545,-0.98863 1.05469,-1.86014 1.42857,-2.85714 0.34469,-0.91918 0.40384,-1.92583 0.71428,-2.85714 0.30331,-0.90993 1.27235,-1.74102 0.71429,-2.85714 -0.10648,-0.21296 -0.47619,0 -0.71429,0"
       id="path3006"
       inkscape:connector-curvature="0" />
    <path
       style="fill:none;stroke:#000000;stroke-width:1px;stroke-linecap:butt;stroke-linejoin:miter;stroke-opacity:1"
       d="m 332.14286,494.50504 c -1.42857,0.23809 -2.92965,0.20576 -4.28572,0.71428 -0.63055,0.23646 -1.05501,0.86824 -1.42857,1.42858 -0.57825,0.86737 -1.93122,3.73016 -2.14286,5 -0.11742,0.70456 0,1.42857 0,2.14285 0,0.71429 -0.26527,1.47966 0,2.14286 0.25011,0.62527 0.95239,0.95238 1.42858,1.42857 0.23809,0.2381 0.37756,0.71429 0.71428,0.71429 2.15801,0 4.24465,-2.52324 5,-4.28572 0.38671,-0.90231 0.47619,-1.90476 0.71429,-2.85714 0.23809,-0.95238 0.71428,-1.87545 0.71428,-2.85714 0,-1.21405 0.3716,-4.11437 -0.71428,-3.57143 -1.29538,0.64769 -0.55435,2.84629 -0.71429,4.28571 -0.0789,0.70992 0,1.42857 0,2.14286 0,0.47619 -0.11549,0.9666 0,1.42857 0.12913,0.5165 0.47619,0.95238 0.71429,1.42857 0.28999,0.58 0.7014,1.77928 1.42857,2.14286 0.21296,0.10648 0.47619,0 0.71428,0 1.33328,0 1.96279,-0.53421 2.85715,-1.42857"
       id="path3008"
       inkscape:connector-curvature="0" />
    <path
       style="fill:none;stroke:#000000;stroke-width:1px;stroke-linecap:butt;stroke-linejoin:miter;stroke-opacity:1"
       d="m 346.42857,507.36218 c -0.94527,-3.78109 -0.71428,-1.87545 -0.71428,-5.71428 0,-2.96784 -0.30117,-2.46137 0.71428,-5 0.5291,-1.32276 0.66138,-1.77249 2.14286,-2.14286 0.46197,-0.11549 0.95238,0 1.42857,0 0.47619,0 0.9666,-0.11549 1.42857,0 0.5165,0.12912 0.91207,0.58516 1.42857,0.71428 0.46198,0.1155 0.9666,-0.11549 1.42857,0 3.28307,0.82077 0.16206,0.71429 2.14286,0.71429"
       id="path3010"
       inkscape:connector-curvature="0" />
    <path
       style="fill:none;stroke:#000000;stroke-width:1px;stroke-linecap:butt;stroke-linejoin:miter;stroke-opacity:1"
       d="m 383.57143,490.21932 c 0.95238,0.2381 2.01535,0.20921 2.85714,0.71429 0.45653,0.27392 0.47619,0.95238 0.71429,1.42857 1.67512,3.35026 -0.33672,-0.84179 1.42857,3.57143 0.39545,0.98864 0.95238,1.90476 1.42857,2.85714 0.2381,0.47619 0.2713,1.13325 0.71429,1.42857 0.39621,0.26415 0.97681,-0.15058 1.42857,0 0.31944,0.10648 0.37757,0.71429 0.71428,0.71429 1.05101,0 0.71429,-1.86391 0.71429,-2.14286"
       id="path3012"
       inkscape:connector-curvature="0" />
    <path
       style="fill:none;stroke:#000000;stroke-width:1px;stroke-linecap:butt;stroke-linejoin:miter;stroke-opacity:1"
       d="m 394.28571,488.07647 c -1.7782,3.86704 -3.95303,7.55382 -5.71428,11.42857 -0.53057,1.16725 -0.85516,2.42461 -1.42857,3.57143 -0.89742,1.79484 -2.74207,4.88492 -4.28572,6.42857"
       id="path3014"
       inkscape:connector-curvature="0" />
    <path
       style="fill:none;stroke:#000000;stroke-width:1px;stroke-linecap:butt;stroke-linejoin:miter;stroke-opacity:1"
       d="m 13.571429,282.36218 c 1.190476,0.95238 2.579262,1.69962 3.571428,2.85714 0.489996,0.57167 0.32691,1.49724 0.714286,2.14286 0.346479,0.57747 1.082092,0.85111 1.428571,1.42857 0.387376,0.64563 0.377569,1.46943 0.714286,2.14286 0.767834,1.53567 1.97379,2.81346 2.857143,4.28571 0.273916,0.45653 0.394847,1.00266 0.714286,1.42858 0.614762,0.81968 1.636936,1.93449 2.142857,1.42857 1.215664,-1.21567 0.579297,-2.80085 0.714285,-4.28572 0.152425,-1.67667 0.602296,-3.32014 0.714286,-5 0.126703,-1.90054 0,-3.80952 0,-5.71428 0,-4.28572 0,-8.57143 0,-12.85715 0,-0.47619 0,0.95239 0,1.42858 0,1.90476 0,3.80952 0,5.71428"
       id="path3016"
       inkscape:connector-curvature="0" />
    <path
       style="fill:none;stroke:#000000;stroke-width:1px;stroke-linecap:butt;stroke-linejoin:miter;stroke-opacity:1"
       d="m 35,275.21932 c -2.719845,1.35993 -3.0937,0.70506 -3.571429,3.57143 -0.117427,0.70457 0.117428,1.43829 0,2.14286 -0.123779,0.74268 -0.714285,1.38993 -0.714285,2.14286 0,0.53239 0.58516,0.91207 0.714285,1.42857 0.115494,0.46197 -0.264142,1.03236 0,1.42857 0.295321,0.44298 0.985591,0.41897 1.428572,0.71429 0.280166,0.18677 0.377568,0.71428 0.714286,0.71428 0.336717,0 0.434119,-0.52751 0.714285,-0.71428 0.442982,-0.29532 1.109133,-0.28837 1.428572,-0.71429 0.940162,-1.25355 0.714285,-2.87646 0.714285,-4.28571 0,-0.71429 0.154951,-1.44558 0,-2.14286 -0.326664,-1.46999 0,-3.80952 -1.428571,-4.28572 -1.151751,-0.38391 -0.714286,2.35738 -0.714286,3.57143 0,0.5324 0.476191,0.95238 0.714286,1.42857 1.015455,2.03091 0.337824,1.05211 2.142857,2.85715 0.238095,0.23809 0.413117,0.5637 0.714286,0.71428 0.778894,0.38945 0.930747,-0.3824 1.428571,-0.71428 0.442982,-0.29532 0.923495,-0.54593 1.428572,-0.71429 0.225877,-0.0753 0.545927,0.16836 0.714285,0 0.168359,-0.16836 -0.106479,-0.50133 0,-0.71428 0.789663,-1.57933 0.443317,-0.22166 1.428572,-0.71429 0.301169,-0.15058 0.413116,-0.5637 0.714286,-0.71429 0.425917,-0.21295 1.091854,0.33672 1.428571,0 0.168359,-0.16835 0,-0.47619 0,-0.71428 0,-0.47619 0,-0.95238 0,-1.42857 0,-0.47619 0.115493,-0.9666 0,-1.42857 -0.129125,-0.51651 -0.516558,-0.93426 -0.714286,-1.42858 -0.279628,-0.69907 -0.47619,-1.42857 -0.714285,-2.14285 -1.703268,-5.10981 0.0097,0.7819 -0.714286,-4.28572 -0.352383,-2.46667 -1.103659,-2.66375 -0.714286,-5 0.201583,-1.20949 1.117272,-4.28571 2.857143,-4.28571 0.532397,0 0.91207,0.58516 1.428571,0.71428 0.461973,0.1155 0.976818,-0.15058 1.428572,0 0.44521,0.14841 1.428571,2.23224 1.428571,0"
       id="path3018"
       inkscape:connector-curvature="0" />
    <path
       style="fill:none;stroke:#000000;stroke-width:1px;stroke-linecap:butt;stroke-linejoin:miter;stroke-opacity:1"
       d="m 58.571429,244.50504 c 0.952381,0.47619 2.025678,0.7634 2.857142,1.42857 0.415733,0.33259 0.394848,1.00265 0.714286,1.42857 0.404061,0.53875 1.00788,0.90271 1.428572,1.42857 1.072557,1.3407 1.784585,2.94502 2.857142,4.28572 0.420692,0.52586 0.952381,0.95238 1.428572,1.42857 0.238095,0.23809 0.377568,0.71428 0.714286,0.71428 0.434994,0 1.870979,-0.88481 2.142857,-1.42857 0.336717,-0.67343 0.47619,-1.42857 0.714286,-2.14285"
       id="path3020"
       inkscape:connector-curvature="0" />
    <path
       style="fill:none;stroke:#000000;stroke-width:1px;stroke-linecap:butt;stroke-linejoin:miter;stroke-opacity:1"
       d="m 67.857143,235.21932 c 0.714286,1.19048 1.521981,2.32968 2.142857,3.57143 0.512362,1.02473 1.199713,4.08457 1.428572,5 0.826913,3.30766 1.53279,6.64463 2.142857,10 0.775352,4.26444 0.546374,3.88726 1.428571,7.85715 0.425918,1.91663 1.185044,3.76606 1.428572,5.71428 0.118128,0.94503 -0.118129,1.91212 0,2.85714 0.121763,0.97412 0.592521,1.88304 0.714285,2.85715 0.118129,0.94502 0,1.90476 0,2.85714 0,0.95238 0,1.90476 0,2.85714 0,5 0,10 0,15 0,7.50703 0.230987,-1.84789 -0.714285,5.71429 -0.118129,0.94503 0.118128,1.91212 0,2.85714 -0.121764,0.97411 -0.592522,1.88303 -0.714286,2.85714 -0.118129,0.94503 0.118128,1.91212 0,2.85715 -0.121764,0.97411 -0.476191,1.90476 -0.714286,2.85714 -0.238095,0.95238 -0.403847,1.92583 -0.714286,2.85714 -0.168358,0.50508 -0.58516,0.91207 -0.714285,1.42857 -0.58843,2.35372 0.7528,0.67578 -0.714286,2.14286 -0.238095,0.2381 -0.377568,0.71429 -0.714286,0.71429 -1.092797,0 -0.714285,-2.28184 -0.714285,-2.85715"
       id="path3798"
       inkscape:connector-curvature="0" />
    <path
       style="fill:none;stroke:#0000ff;stroke-width:1px;stroke-linecap:butt;stroke-linejoin:miter;stroke-opacity:1"
       d="m 112.85714,281.6479 c 0.95238,-0.95238 1.80542,-2.01576 2.85715,-2.85715 0.18592,-0.14873 0.47619,0 0.71428,0 0.2381,0 0.47619,0 0.71429,0 0.47619,0 0.97681,-0.15058 1.42857,0 0.31944,0.10648 0.39485,0.60781 0.71428,0.71429 0.90351,0.30117 1.9332,-0.23099 2.85715,0 0.5165,0.12912 0.91207,0.58516 1.42857,0.71428 0.56187,0.14047 3.54291,0 4.28571,0 1.033,0 4.24573,0.15086 5,0 0.52206,-0.10441 0.89618,-0.71428 1.42857,-0.71428 0.9817,0 1.88532,0.57545 2.85715,0.71428 0.7071,0.10102 1.42857,0 2.14285,0 1.90477,0 3.80953,0 5.71429,0 0.95238,0 1.91212,-0.11812 2.85714,0 0.97411,0.12177 1.88303,0.59253 2.85715,0.71429 0.94502,0.11813 1.91211,-0.11813 2.85714,0 0.97411,0.12176 1.88303,0.59252 2.85714,0.71429 0.94503,0.11812 1.90476,0 2.85714,0 0.95239,0.23809 1.89452,0.52176 2.85715,0.71428 0.23347,0.0467 0.47619,0 0.71428,0 1.66667,0 3.34621,-0.20672 5,0 0.97411,0.12177 1.88303,0.59252 2.85715,0.71429 0.94502,0.11813 1.90476,0 2.85714,0 2.14286,0 4.28571,0 6.42857,0 0.95238,0 1.91212,-0.11813 2.85714,0 0.97411,0.12176 1.88146,0.60587 2.85715,0.71428 9.41847,0 -1.59558,-0.28873 6.42857,0.71429 0.94502,0.11813 1.91433,-0.13469 2.85714,0 0.74536,0.10648 1.3975,0.60781 2.14286,0.71428 0.94281,0.13469 1.90476,0 2.85714,0 0.95238,0 1.90476,0 2.85714,0 0.71429,0 1.42857,0 2.14286,0 0.95238,0 1.91433,0.13469 2.85714,0 0.74536,-0.10647 1.3975,-0.6078 2.14286,-0.71428 0.94281,-0.13469 1.90476,0 2.85714,0 0.95238,0 1.90476,0 2.85715,0 3.80952,0 7.61904,0 11.42857,0 0.95238,0 1.90476,0 2.85714,0 0.95238,0 1.91433,0.13469 2.85714,0 0.74536,-0.10648 1.42857,-0.47619 2.14286,-0.71429 0.95238,0 1.91212,0.11813 2.85714,0 1.81667,0.11957 3.28406,-1.18343 5,-1.42857 0.94281,-0.13469 1.91212,0.11813 2.85715,0 0.97411,-0.12176 1.88303,-0.59252 2.85714,-0.71428 2.3411,-0.29264 5.55229,0.32926 7.85714,0 0.74536,-0.10648 1.3975,-0.60781 2.14286,-0.71429 0.94281,-0.13469 1.90476,0 2.85714,0 0.71429,0 1.42857,0 2.14286,0 1.66667,0 3.33333,0 5,0 0.71428,0 1.43575,0.10102 2.14286,0 0.97182,-0.13883 1.88531,-0.57545 2.85714,-0.71429 0.70711,-0.10101 1.42857,0 2.14286,0 1.42857,0 2.85714,0 4.28571,0 1.42857,0 2.85714,0 4.28571,0 0.95239,0 1.91434,-0.13468 2.85715,0 0.74535,0.10648 1.3975,0.60781 2.14285,0.71429 0.94281,0.13469 1.90477,0 2.85715,0 2.38095,0 4.7619,0 7.14285,0 0.95239,0 1.91434,-0.13469 2.85715,0 0.74535,0.10648 1.3975,0.60781 2.14285,0.71429 0.94281,0.13468 1.91212,-0.11813 2.85715,0 0.97411,0.12176 1.88532,0.57545 2.85714,0.71428 0.70711,0.10102 1.43575,-0.10101 2.14286,0 1.94365,0.27767 3.76606,1.18505 5.71428,1.42857 0.94503,0.11813 1.91212,-0.11813 2.85715,0 0.97411,0.12177 1.89882,0.50133 2.85714,0.71429 1.18514,0.26336 2.38629,0.45092 3.57143,0.71428 0.95831,0.21296 1.88303,0.59253 2.85714,0.71429 0.94503,0.11813 1.91212,-0.11813 2.85714,0 1.81667,-0.11956 3.28406,1.18344 5,1.42857 0.94281,0.13469 1.91212,-0.11813 2.85715,0 0.97411,0.12177 1.88303,0.59252 2.85714,0.71429 0.94503,0.11813 1.91212,-0.11813 2.85714,0 0.97411,0.12176 1.90476,0.47619 2.85714,0.71428 0.95239,0.2381 1.90477,0.47619 2.85715,0.71429 0.95238,0.23809 1.88303,0.59252 2.85714,0.71428 0.94503,0.11813 1.91212,-0.11812 2.85714,0 0.97411,0.12177 1.88304,0.59253 2.85715,0.71429 0.94502,0.11813 1.91211,-0.11813 2.85714,0 0.97411,0.12176 1.88145,0.60588 2.85714,0.71429 1.1832,0.13146 2.38824,-0.13147 3.57143,0 0.97569,0.10841 1.89883,0.50132 2.85714,0.71428 1.11084,0.24685 5.16167,0.95348 6.42857,1.42857 0.997,0.37388 1.847,1.09186 2.85715,1.42857 1.15175,0.38392 2.38628,0.45093 3.57143,0.71429 0.95831,0.21296 1.91322,0.44459 2.85714,0.71429 0.72395,0.20684 1.3975,0.6078 2.14286,0.71428 0.94281,0.13469 1.91211,-0.11813 2.85714,0 0.97411,0.12177 1.90476,0.47619 2.85714,0.71429 0.95238,0.23809 1.91322,0.44459 2.85714,0.71428 0.72396,0.20685 1.39751,0.60781 2.14286,0.71429 0.94281,0.13469 1.91212,-0.11813 2.85714,0 1.81667,-0.11957 3.28407,1.18344 5,1.42857 0.94281,0.13469 1.91434,-0.13469 2.85715,0 0.74535,0.10648 1.4189,0.50744 2.14285,0.71429 0.94392,0.26969 1.88532,0.57545 2.85715,0.71428 0.7071,0.10102 1.42857,0 2.14285,0 0.71429,0.2381 1.40018,0.59051 2.14286,0.71429 0.70457,0.11743 1.43829,-0.11743 2.14286,0 0.74268,0.12378 1.3975,0.6078 2.14286,0.71428 0.94281,0.13469 1.91433,-0.13468 2.85714,0 0.74536,0.10648 1.40018,0.59051 2.14286,0.71429 0.70456,0.11743 1.43829,-0.11743 2.14285,0 0.74268,0.12378 1.41891,0.50744 2.14286,0.71428 0.94392,0.2697 1.91322,0.4446 2.85714,0.71429 1.84494,0.52713 3.01514,1.18046 5,1.42857 0.94503,0.11813 1.91434,-0.13469 2.85715,0 0.74535,0.10648 1.3975,0.60781 2.14285,0.71429 0.94281,0.13468 1.91434,-0.13469 2.85715,0 0.74535,0.10648 1.42857,0.47619 2.14285,0.71428 0.95238,0 1.91212,-0.11813 2.85715,0 1.81666,-0.11956 3.28406,1.18344 5,1.42857 0.94281,0.13469 1.91211,-0.11812 2.85714,0 2.71796,0.33975 5.13918,1.80312 7.85714,2.14286 8.74791,0 -2.10818,-0.30117 5,0.71429 0.94281,0.13468 1.91212,-0.11813 2.85714,0 0.97412,0.12176 1.89883,0.50132 2.85715,0.71428 9.80243,2.17832 -0.98675,-0.48601 5.71428,1.42857 2.83019,0.80863 5.74124,1.33424 8.57143,2.14286 4.9665,1.419 -1.09524,-0.14286 5,2.14286 4.83288,1.81233 0.97073,-0.29826 5,1.42857 0.9787,0.41944 1.86015,1.0547 2.85714,1.42857 1.83838,0.68939 3.90966,0.65516 5.71429,1.42857 0.78905,0.33817 1.3538,1.09041 2.14286,1.42857 3.47843,1.49076 1.9276,0.27538 5,0.71429 1.80863,-0.0676 3.29022,1.14361 5,1.42857 0.70456,0.11743 1.43575,-0.10101 2.14285,0 2.23298,0.319 2.96477,0.84708 5,1.42857 0.94393,0.26969 1.91323,0.4446 2.85715,0.71429 2.88534,0.82438 5.72426,1.90809 8.57143,2.85714 0.71428,0.2381 1.44378,0.43466 2.14285,0.71429 0.49432,0.19772 0.90652,0.60987 1.42857,0.71428 0.70042,0.14009 1.44245,-0.14008 2.14286,0 0.52206,0.10441 0.95238,0.47619 1.42857,0.71429 0.71429,0 1.44245,-0.14008 2.14286,0 1.04412,0.20882 1.82414,1.17032 2.85714,1.42857 0.46198,0.11549 0.96163,-0.0934 1.42857,0 0.73831,0.14766 1.40456,0.56663 2.14286,0.71429 1.13081,0.22616 3.21643,-0.26733 4.28572,0 0.5165,0.12912 0.95238,0.47619 1.42857,0.71428 0.71428,0 1.44244,-0.14008 2.14285,0 0.52206,0.10441 0.90652,0.60988 1.42858,0.71429 1.14468,0.22894 2.42674,-0.22894 3.57142,0 0.73831,0.14766 1.42858,0.47619 2.14286,0.71428 5.87291,1.95764 -1.50584,-0.25097 4.28572,0.71429 0.74268,0.12378 1.42857,0.47619 2.14285,0.71428 0.71429,0.2381 1.42857,0.4762 2.14286,0.71429 0.71429,0.2381 1.40456,0.56663 2.14286,0.71429 0.46694,0.0934 0.9666,-0.1155 1.42857,0 0.5165,0.12912 0.90651,0.60987 1.42857,0.71428 0.70042,0.14008 1.44244,-0.14008 2.14286,0 1.29281,-0.43052 1.32844,1.1571 2.14285,1.42857 0.45176,0.15059 0.9666,-0.11549 1.42858,0 1.41849,0.35463 2.86722,1.78824 4.28571,2.14286 0.46197,0.11549 0.9666,-0.11549 1.42857,0 0.5165,0.12913 0.93426,0.51656 1.42857,0.71429 0.69908,0.27962 1.44379,0.43465 2.14286,0.71428 0.98864,0.39546 1.86851,1.03312 2.85714,1.42857 1.45199,0.5808 2.31509,0.59101 3.57143,1.42857 0.28017,0.18678 0.43412,0.52751 0.71429,0.71429 0.88596,0.59064 1.97118,0.83793 2.85714,1.42857 0.28017,0.18678 0.43412,0.52751 0.71429,0.71429 0.44298,0.29532 0.95238,0.47619 1.42857,0.71428 1.42857,0.71429 2.85714,1.42857 4.28571,2.14286 0.47619,0.2381 1.05211,0.33782 1.42857,0.71429 0.37647,0.37646 0.33783,1.05211 0.71429,1.42857 0.37646,0.37646 1.00265,0.39485 1.42857,0.71428 0.53875,0.40406 0.88982,1.02451 1.42857,1.42857 0.42592,0.31944 1.00266,0.39485 1.42857,0.71429 1.6,1.2 2.68572,3.08571 4.28572,4.28571 4.06182,3.04637 -1.51681,-2.23109 2.85714,2.14286 4.37395,4.37396 -0.90351,-1.20468 2.14286,2.85714 0.80812,1.0775 2.04902,1.77965 2.85714,2.85715 0.31944,0.42592 0.41897,0.98559 0.71429,1.42857 0.18677,0.28016 0.5275,0.43412 0.71428,0.71428 2.40562,3.60844 0.006,0.0165 0.71429,2.14286 0.16836,0.50508 0.47619,0.95238 0.71428,1.42857 0.94715,1.8943 0.71429,1.52521 0.71429,3.57143 0,0.2381 0.16836,0.54593 0,0.71429 -0.16836,0.16836 -0.50133,-0.10648 -0.71429,0 -0.60234,0.30117 -0.78969,1.21561 -1.42857,1.42857 -0.45175,0.15058 -0.97682,-0.15059 -1.42857,0 -0.31944,0.10648 -0.39485,0.60781 -0.71429,0.71428 -1.2958,0.43194 -1.74632,-0.26995 -2.85714,-0.71428 -1.39814,-0.55926 -2.90162,-0.83539 -4.28571,-1.42857 -4.31702,-1.85015 -1.41324,-0.80757 -5,-2.85715 -0.9245,-0.52828 -1.90476,-0.95238 -2.85715,-1.42857 -0.95238,-0.47619 -1.87844,-1.00913 -2.85714,-1.42857 -0.69204,-0.29659 -1.45081,-0.41769 -2.14286,-0.71428 -0.9787,-0.41945 -1.87844,-1.00913 -2.85714,-1.42858 -0.69204,-0.29659 -1.45081,-0.41769 -2.14286,-0.71428 -1.9574,-0.83889 -3.72028,-2.1094 -5.71428,-2.85714 -0.91919,-0.3447 -1.97909,-0.27526 -2.85714,-0.71429 -1.0648,-0.5324 -1.81648,-1.56471 -2.85715,-2.14286 -1.12083,-0.62268 -2.39975,-0.90782 -3.57143,-1.42857 -0.97302,-0.43245 -1.86014,-1.0547 -2.85714,-1.42857 -0.91918,-0.34469 -1.95482,-0.32758 -2.85714,-0.71429 -0.78905,-0.33816 -1.32845,-1.1571 -2.14286,-1.42857 -0.67763,-0.22587 -1.43575,0.10102 -2.14286,0 -0.97182,-0.13883 -1.88531,-0.57545 -2.85714,-0.71428 -0.7071,-0.10102 -1.45605,0.19623 -2.14286,0 -1.02382,-0.29252 -1.86014,-1.0547 -2.85714,-1.42857 -0.91918,-0.3447 -1.93795,-0.36959 -2.85714,-0.71429 -0.997,-0.37387 -1.84699,-1.09185 -2.85714,-1.42857 -6.02047,-1.20409 -1.25336,0.0751 -6.42858,-2.14286 -1.01761,-0.43612 -4.09383,-1.29912 -5,-1.42857 -0.7071,-0.10101 -1.43829,0.11743 -2.14285,0 -0.74268,-0.12378 -1.40018,-0.59051 -2.14286,-0.71429 -0.70457,-0.11742 -1.42857,0 -2.14286,0 -0.71428,0 -1.42857,0 -2.14285,0 -0.71429,0 -1.43575,0.10102 -2.14286,0 -0.97183,-0.13883 -1.90476,-0.47619 -2.85714,-0.71428 -0.95238,-0.2381 -1.90477,-0.47619 -2.85715,-0.71429 -6.96796,-1.74199 1.73273,0.38505 -6.42857,-1.42857 -0.95831,-0.21296 -1.88532,-0.57545 -2.85714,-0.71428 -0.70711,-0.10102 -1.43575,0.10101 -2.14286,0 -0.97182,-0.13884 -1.88303,-0.59253 -2.85714,-0.71429 -3.74349,-0.46794 -1.9708,0.46794 -5.71429,0 -1.94822,-0.24353 -3.79765,-1.00265 -5.71428,-1.42857 -1.18514,-0.26337 -2.38629,-0.45092 -3.57143,-0.71429 -0.95832,-0.21296 -1.88146,-0.60587 -2.85714,-0.71428 -1.1832,-0.13147 -2.38824,0.13146 -3.57143,0 -0.97569,-0.10841 -1.88532,-0.57546 -2.85715,-0.71429 -0.7071,-0.10101 -1.42857,0 -2.14285,0 -1.42857,0 -2.85715,0 -4.28572,0 -1.66666,0 -3.33333,0 -5,0 -0.95238,0 -1.91211,0.11813 -2.85714,0 -0.97411,-0.12176 -1.89883,-0.50132 -2.85714,-0.71428 -1.11084,-0.24686 -5.16167,-0.95349 -6.42857,-1.42858 -0.997,-0.37387 -1.82414,-1.17032 -2.85715,-1.42857 -0.92394,-0.23098 -1.91211,0.11813 -2.85714,0 -0.97411,-0.12176 -1.88303,-0.59252 -2.85714,-0.71428 -0.94503,-0.11813 -1.90476,0 -2.85715,0 -0.71428,0 -1.43575,-0.10102 -2.14285,0 -0.97183,0.13883 -1.87545,0.71428 -2.85715,0.71428 -0.98169,0 -1.88303,-0.59252 -2.85714,-0.71428 -0.94502,-0.11813 -1.91059,0.10517 -2.85714,0 -2.24216,0.0409 -4.24687,-1.18616 -6.42857,-1.42857 -1.1832,-0.13147 -2.38824,0.13146 -3.57143,0 -0.97569,-0.10841 -1.88303,-0.59253 -2.85714,-0.71429 -0.94503,-0.11813 -1.90477,0 -2.85715,0 -0.95238,-0.23809 -1.88531,-0.57545 -2.85714,-0.71429 -0.70711,-0.10101 -1.42857,0 -2.14286,0 -0.95238,0 -1.90476,0 -2.85714,0 -1.19048,0 -2.38823,0.13147 -3.57143,0 -0.009,-10e-4 -5.66825,-1.41834 -5.71428,-1.42857 -1.18515,-0.26336 -2.38629,-0.45092 -3.57143,-0.71428 -2.11067,-0.46904 -4.27426,-1.18921 -6.42857,-1.42857 -0.94656,-0.10518 -1.91212,0.11812 -2.85715,0 -1.94822,-0.24353 -3.76291,-1.21176 -5.71428,-1.42858 -1.1832,-0.13146 -2.38824,0.13147 -3.57143,0 -1.95138,-0.21681 -3.76606,-1.18504 -5.71429,-1.42857 -2.12631,-0.26579 -4.29882,0.23664 -6.42857,0 -0.97569,-0.10841 -1.88303,-0.59252 -2.85714,-0.71428 -0.94503,-0.11813 -1.91059,0.10517 -2.85714,0 -1.20663,-0.13407 -2.36481,-0.58022 -3.57143,-0.71429 -0.94656,-0.10517 -1.91212,0.11813 -2.85715,0 -0.97411,-0.12176 -1.88145,-0.60587 -2.85714,-0.71428 -1.18319,-0.13147 -2.38823,0.13146 -3.57143,0 -0.97568,-0.10841 -1.88531,-0.57546 -2.85714,-0.71429 -0.70711,-0.10101 -1.42857,0 -2.14286,0 -1.90476,0 -3.80952,0 -5.71428,0 -0.95238,0 -1.91212,0.11813 -2.85715,0 -0.97411,-0.12176 -1.88303,-0.59252 -2.85714,-0.71429 -1.65379,-0.20672 -3.35008,0.23571 -5,0 -0.97182,-0.13883 -1.88532,-0.57545 -2.85714,-0.71428 -0.70711,-0.10102 -1.42857,0 -2.14286,0 -0.71428,0 -1.42857,0 -2.14286,0 -0.47619,0 -0.96162,-0.0934 -1.42857,0 -0.7383,0.14766 -1.40017,0.5905 -2.14285,0.71428 -0.70457,0.11743 -1.42858,0 -2.14286,0 -0.95238,0 -1.90476,0 -2.85714,0 -0.71429,0 -1.42858,0 -2.14286,0 -0.95238,0 -1.91433,0.13469 -2.85714,0 -0.74536,-0.10647 -1.39751,-0.6078 -2.14286,-0.71428 -0.94281,-0.13469 -1.90476,0 -2.85714,0 -0.71429,0 -1.42858,0 -2.14286,0 -2.85714,0 -5.71429,0 -8.57143,0 -0.95238,0 -1.90476,0 -2.85714,0 -0.95238,0 -1.91212,0.11813 -2.85715,0 -1.81666,0.11956 -3.28406,-1.18344 -5,-1.42857 -0.9428,-0.13469 -1.91211,0.11813 -2.85714,0 -0.97411,-0.12177 -1.88532,-0.57546 -2.85714,-0.71429 -3.00006,-0.42858 -1.35531,0.22589 -4.28572,0.71429 -0.68534,0.11422 -6.63178,0.0639 -7.14285,0 -0.97411,-0.12177 -1.88303,-0.59252 -2.85715,-0.71429 -0.94502,-0.11813 -1.91433,0.13469 -2.85714,0 -0.74535,-0.10648 -1.3975,-0.6078 -2.14286,-0.71428 -0.9428,-0.13469 -1.91211,0.11812 -2.85714,0 -0.97411,-0.12177 -1.88532,-0.57546 -2.85714,-0.71429 -0.70711,-0.10101 -1.42857,0 -2.14286,0 -2.14286,0 -4.28571,0 -6.42857,0 -0.71429,0 -1.42857,0 -2.14286,0 -0.71428,0 -1.43575,0.10102 -2.14285,0 -2.9,-0.41429 -5.67143,-1.72857 -8.57143,-2.14286 -0.70711,-0.10101 -1.43575,0.10102 -2.14286,0 -0.97183,-0.13883 -1.88303,-0.59252 -2.85714,-0.71428 -0.94503,-0.11813 -1.90476,0 -2.85715,0 -2.85714,0 -5.71428,0 -8.57142,0 -0.71429,0 -1.43829,0.11743 -2.14286,0 -0.74268,-0.12378 -1.40018,-0.59051 -2.14286,-0.71429 -0.70457,-0.11743 -1.42857,0 -2.14286,0 -0.71428,-0.23809 -1.40455,-0.56662 -2.14285,-0.71428 -1.16736,-0.23348 -2.39715,0.19571 -3.57143,0 -0.74268,-0.12378 -1.40456,-0.56663 -2.14286,-0.71429 -3.816,-0.7632 1.60756,1.35731 -3.57143,-0.71429 -0.49432,-0.19772 -0.90651,-0.60987 -1.42857,-0.71428 -3.33977,-0.66796 -0.99722,0.92996 -4.28571,-0.71429 -5.53866,-2.76932 1.10041,-0.34748 -4.28572,-2.14285 -2.85714,-0.95238 -5.71428,-1.90477 -8.57143,-2.85715 -1.42857,-0.47619 -2.90162,-0.83539 -4.28571,-1.42857 -0.9787,-0.41944 -1.87844,-1.00913 -2.85714,-1.42857 -0.69205,-0.29659 -1.46942,-0.37757 -2.14286,-0.71429 -0.76783,-0.38391 -1.37502,-1.04465 -2.14286,-1.42857 -0.67343,-0.33671 -1.46942,-0.37756 -2.14285,-0.71428 -0.76784,-0.38392 -1.37503,-1.04466 -2.14286,-1.42857 -1.34687,-0.67344 -2.93885,-0.75514 -4.28572,-1.42858 -0.48081,-0.2404 -2.6805,-1.96467 -3.57142,-2.14285 -0.70042,-0.14009 -1.44245,0.14008 -2.14286,0 -0.52206,-0.10441 -0.95238,-0.47619 -1.42857,-0.71429 -1.90476,-0.95238 -3.80953,-1.90476 -5.71429,-2.85714 -0.47619,-0.2381 -0.95238,-0.47619 -1.42857,-0.71429 -0.47619,-0.23809 -0.90651,-0.60987 -1.42857,-0.71428 -5.44903,0 0.56347,0.31944 -3.57143,-0.71429 -0.93915,-0.23479 -2.68432,0.2957 -3.57143,0 -0.31944,-0.10648 -0.39485,-0.6078 -0.71428,-0.71428 -0.45176,-0.15059 -0.9666,0.11549 -1.42858,0 -0.5165,-0.12913 -0.95238,-0.47619 -1.42857,-0.71429 -0.71428,0 -1.44244,0.14008 -2.14285,0 -0.52206,-0.10441 -0.93426,-0.51656 -1.42858,-0.71429 -0.69907,-0.27962 -1.44378,-0.43465 -2.14285,-0.71428 -0.49432,-0.19773 -0.90652,-0.60988 -1.42857,-0.71429 -1.16736,-0.23347 -2.4165,0.28874 -3.57143,0 -1.033,-0.25825 -1.82414,-1.17032 -2.85715,-1.42857 -0.46197,-0.11549 -0.96659,0.11549 -1.42857,0 -0.5165,-0.12912 -0.91207,-0.58516 -1.42857,-0.71428 -0.46197,-0.1155 -0.9666,0.11549 -1.42857,0 -3.44925,-0.86232 0.0354,-0.33945 -2.14286,-1.42858 -0.57143,-0.28571 -1.57143,0.28572 -2.14285,0 -0.30117,-0.15058 -0.41312,-0.5637 -0.71429,-0.71428 -0.21296,-0.10648 -0.50133,0.10648 -0.71429,0 -0.30116,-0.15059 -0.41311,-0.5637 -0.71428,-0.71429 -0.21296,-0.10648 -0.48841,0.0753 -0.71429,0 -0.50507,-0.16836 -0.92349,-0.54592 -1.42857,-0.71428 -0.22588,-0.0753 -0.47619,0 -0.71428,0 -0.47619,-0.2381 -0.9235,-0.54593 -1.42858,-0.71429 -0.22587,-0.0753 -0.50132,0.10648 -0.71428,0 -0.60234,-0.30117 -0.82623,-1.1274 -1.42857,-1.42857 -0.21296,-0.10648 -0.50133,0.10648 -0.71429,0 -0.30117,-0.15058 -0.41311,-0.5637 -0.71428,-0.71429 -0.21296,-0.10647 -0.50133,0.10648 -0.71429,0 -0.70288,-0.35143 -2.15427,-2.5057 -2.85714,-2.85714 -0.21296,-0.10648 -0.54593,0.16836 -0.71429,0 -0.16836,-0.16836 0.16836,-0.54593 0,-0.71428 -0.33672,-0.33672 -1.09185,0.33671 -1.42857,0 -0.16836,-0.16836 0.16836,-0.54593 0,-0.71429 -0.33672,-0.33672 -1.00265,0.21296 -1.42857,0 -0.30117,-0.15058 -0.41312,-0.5637 -0.71429,-0.71429 -0.21296,-0.10647 -0.47619,0 -0.71428,0 -1.99647,0 -0.49322,-0.0884 -4.28572,1.42858 z"
       id="path3804"
       inkscape:connector-curvature="0" />
    <path
       style="stroke-linejoin:miter;marker-end:url(#Arrow1Mendz);stroke-opacity:1;fill-opacity:1;stroke:#ff0000;stroke-linecap:butt;stroke-width:1px;fill:#ff0000"
       d="m 131.42857,283.07647 c 9.28572,1.42857 320,42.14285 320,42.14285"
       id="path4252"
       inkscape:connector-curvature="0" />
    <rect
       y="604.50507"
       x="95.714287"
       height="393.57144"
       width="592.14288"
       id="rect4851"
       style="fill:none;fill-opacity:1;stroke:#000000;stroke-opacity:1" />
    <path
       inkscape:connector-curvature="0"
       id="path4853"
       d="m 327.14286,1023.7908 c 0.47619,0.9523 0.88074,1.944 1.42857,2.8571 0.44457,0.7409 1.76927,1.3957 2.14286,2.1429 0.10648,0.2129 -0.10648,0.5013 0,0.7142 0.15058,0.3012 0.37756,0.7143 0.71428,0.7143 1.10032,0 0.64455,-1.8639 0.71429,-2.1428 0.12912,-0.5165 0.58516,-0.9121 0.71428,-1.4286 0.1155,-0.462 -0.11549,-0.9666 0,-1.4286 0.25825,-1.033 1.09186,-1.847 1.42857,-2.8571 0.15059,-0.4518 0,-0.9524 0,-1.4286 0,-0.2381 0.10648,-0.5013 0,-0.7143 -0.15058,-0.3011 -0.47619,-0.4762 -0.71428,-0.7143"
       style="fill:none;stroke:#000000;stroke-width:1px;stroke-linecap:butt;stroke-linejoin:miter;stroke-opacity:1" />
    <path
       inkscape:connector-curvature="0"
       id="path4855"
       d="m 342.85714,1024.505 c -2.51956,0.8316 2.33521,-2.6647 1.42857,-3.5714 -0.16835,-0.1683 -0.47619,0 -0.71428,0 -0.2381,0 -0.66759,-0.2335 -0.71429,0 -0.23347,1.1674 0.31324,2.4229 0,3.5714 -2.46229,9.0285 -2.14285,0.8533 -2.14285,6.4286 0,0.4762 -0.15059,0.9768 0,1.4286 0.0697,0.2092 0.95238,1.1905 1.42857,0.7143 0.46647,-0.4665 2.20045,-4.5392 2.14285,-5 -0.15903,-1.2723 -2.71075,-3.5715 -1.42857,-3.5715 1.52456,0 1.77912,2.4934 2.85715,3.5715 0.0714,0.071 2.07142,0.071 2.14285,0 0.16836,-0.1684 -0.16836,-0.546 0,-0.7143 0.16836,-0.1684 0.47619,0 0.71429,0 0.23809,0 0.47619,0 0.71428,0"
       style="fill:none;stroke:#000000;stroke-width:1px;stroke-linecap:butt;stroke-linejoin:miter;stroke-opacity:1" />
    <path
       inkscape:connector-curvature="0"
       id="path4857"
       d="m 354.28571,1028.0765 c -1.64946,-1.51 -0.3841,-3.3491 -0.71428,-5 -0.14766,-0.7383 -0.53168,-1.4124 -0.71429,-2.1429 -0.0577,-0.231 0,-0.4762 0,-0.7143 0,-0.4762 -0.15058,-0.9768 0,-1.4285 0.10648,-0.3195 0.52751,-0.4342 0.71429,-0.7143 0.29532,-0.443 0.33782,-1.0521 0.71428,-1.4286 0.42688,-0.4269 3.29249,-1.4286 3.57143,-1.4286 0.5324,0 0.95238,0.4762 1.42857,0.7143"
       style="fill:none;stroke:#000000;stroke-width:1px;stroke-linecap:butt;stroke-linejoin:miter;stroke-opacity:1" />
    <path
       inkscape:connector-curvature="0"
       id="path4859"
       d="m 386.42857,1018.7908 c 0.47208,1.5373 1.54968,2.8027 2.14286,4.2857 0.46577,1.1644 1.60328,5.0873 2.85714,5.7143 0.21296,0.1064 0.47619,0 0.71429,0 0.23809,0 0.50132,0.1064 0.71428,0 0.30117,-0.1506 0.47619,-0.4762 0.71429,-0.7143"
       style="fill:none;stroke:#000000;stroke-width:1px;stroke-linecap:butt;stroke-linejoin:miter;stroke-opacity:1" />
    <path
       inkscape:connector-curvature="0"
       id="path4861"
       d="m 390.71429,1017.3622 c -0.19396,0.9698 -0.99626,5.2757 -1.42858,6.4286 -0.37387,0.997 -0.90028,1.9326 -1.42857,2.8571 -1.14285,2 -1.47619,2.5238 -3.57143,3.5714 -0.67343,0.3367 -1.38993,0.7143 -2.14285,0.7143 -0.75293,0 -1.42857,-0.4762 -2.14286,-0.7143"
       style="fill:none;stroke:#000000;stroke-width:1px;stroke-linecap:butt;stroke-linejoin:miter;stroke-opacity:1" />
    <path
       inkscape:connector-curvature="0"
       id="path4863"
       d="m 34.285714,843.07647 c 4.178455,4.17845 2.637543,2.1706 5,5.71428 0.476191,0.71429 0.878996,1.48337 1.428572,2.14286 0.646684,0.77602 1.51182,1.35406 2.142857,2.14286 0.332586,0.41573 0.394847,1.00265 0.714286,1.42857 0.404061,0.53875 1.055017,0.86824 1.428571,1.42857 0.132072,0.19811 -0.168359,0.54593 0,0.71429 0.168359,0.16836 0.638993,0.22587 0.714286,0 0.687273,-2.06182 -0.498573,-2.3443 -0.714286,-4.28572 -0.157759,-1.41983 0.118636,-2.86208 0,-4.28571 -0.674018,-8.08821 -0.631321,-0.68189 -1.428571,-7.85714 -0.105173,-0.94656 0,-1.90477 0,-2.85715 0,-0.47619 0.150584,-0.97682 0,-1.42857 -0.10648,-0.31944 -0.714286,-0.37757 -0.714286,-0.71428 0,-0.2381 0.714286,-0.2381 0.714286,0 0,0.23809 -0.714286,-0.2381 -0.714286,0 0,1.97117 0.714286,-0.54261 0.714286,1.42857"
       style="fill:none;stroke:#000000;stroke-width:1px;stroke-linecap:butt;stroke-linejoin:miter;stroke-opacity:1" />
    <path
       inkscape:connector-curvature="0"
       id="path4865"
       d="m 47.857143,827.36218 c 0,1.66667 0,3.33334 0,5 0,0.71429 -0.101015,1.43575 0,2.14286 0.138832,0.97182 0.552896,1.88881 0.714286,2.85714 0.07829,0.46971 -0.115494,0.9666 0,1.42857 0.129125,0.5165 0.47619,0.95238 0.714285,1.42858 0.238096,0.47619 0.337824,1.05211 0.714286,1.42857 0.168359,0.16836 0.476191,0 0.714286,0 0.238095,0 0.545927,0.16836 0.714285,0 0.927245,-0.92725 0.714286,-1.72553 0.714286,-2.85715 0,-0.71428 0.117428,-1.43829 0,-2.14285 -1.045021,-6.27013 -0.262751,1.09185 -1.428571,-3.57143 -0.115493,-0.46197 -0.476191,-1.42857 0,-1.42857 0.47619,0 -0.115493,0.9666 0,1.42857 0.129125,0.5165 0.47619,0.95238 0.714285,1.42857 0.476191,0.95238 0.83793,1.97118 1.428572,2.85714 0.220484,0.33073 1.624692,1.94674 2.142857,1.42857 0.168359,-0.16835 0,-0.47619 0,-0.71428"
       style="fill:none;stroke:#000000;stroke-width:1px;stroke-linecap:butt;stroke-linejoin:miter;stroke-opacity:1" />
    <path
       inkscape:connector-curvature="0"
       id="path4867"
       d="M 58.571429,831.6479 C 56.732734,828.81469 56.233116,825.44497 55,822.36218 c -0.927245,-2.31811 -0.714286,-0.4815 -0.714286,-2.85714 0,-0.47619 0,-0.95238 0,-1.42857 0,-0.2381 -0.168358,-0.54593 0,-0.71429 0.610949,-0.61095 2.008431,-0.99719 2.857143,-0.71428 0.319438,0.10648 0.476191,0.47619 0.714286,0.71428"
       style="fill:none;stroke:#000000;stroke-width:1px;stroke-linecap:butt;stroke-linejoin:miter;stroke-opacity:1" />
    <path
       inkscape:connector-curvature="0"
       id="path4869"
       d="m 61.428571,811.6479 c 3.709702,-0.93632 2.321178,0.75886 5,1.42857 0.461973,0.11549 0.966599,-0.1155 1.428572,0 1.011032,0.25276 1.650585,1.31756 2.857143,0.71428 0.602338,-0.30117 0.952381,-0.95238 1.428571,-1.42857"
       style="fill:none;stroke:#000000;stroke-width:1px;stroke-linecap:butt;stroke-linejoin:miter;stroke-opacity:1" />
    <path
       inkscape:connector-curvature="0"
       id="path4871"
       d="m 71.428572,801.6479 c 0.273463,2.18771 0.866827,7.56577 1.428571,10 0.389762,1.68897 0.981949,3.32516 1.428571,5 0.505891,1.89709 0.952381,3.80952 1.428572,5.71428 0.47619,1.90476 1.04352,3.78903 1.428571,5.71429 0.330179,1.65089 0.305956,3.36668 0.714286,5 0.698959,2.79583 1.41931,3.55753 2.857143,5.71428"
       style="fill:none;stroke:#000000;stroke-width:1px;stroke-linecap:butt;stroke-linejoin:miter;stroke-opacity:1" />
    <path
       inkscape:connector-curvature="0"
       id="path4875"
       d="m 555,623.07647 c -0.78969,1.05292 -2.35847,2.78969 -2.85714,4.28571 -0.0753,0.22588 0.10648,0.50133 0,0.71429 -0.15059,0.30117 -0.5637,0.41311 -0.71429,0.71428 -0.10648,0.21296 0.10648,0.50133 0,0.71429 -0.30117,0.60234 -1.21561,0.78969 -1.42857,1.42857 -0.15058,0.45175 0.15059,0.97682 0,1.42857 -0.21296,0.63888 -1.1274,0.82624 -1.42857,1.42857 -0.10648,0.21296 0,0.47619 0,0.71429 -0.2381,0.47619 -0.41897,0.98559 -0.71429,1.42857 -0.43348,0.65023 -1.8263,1.50976 -2.14285,2.14286 -0.10648,0.21296 0.10648,0.50132 0,0.71428 -0.30117,0.60234 -1.21562,0.7897 -1.42858,1.42858 -0.15058,0.45175 0.15059,0.97681 0,1.42857 -0.12886,0.3866 -1.83001,1.67359 -2.14285,2.14285 -2.5895,5.17899 0.75292,-1.12938 -1.42857,2.14286 -0.29532,0.44298 -0.33783,1.05211 -0.71429,1.42857 -0.37646,0.37646 -1.05211,0.33783 -1.42857,0.71429 -0.37646,0.37646 -0.41897,0.98559 -0.71429,1.42857 -0.18677,0.28017 -0.52751,0.43412 -0.71428,0.71429 -0.29532,0.44298 -0.33783,1.0521 -0.71429,1.42857 -0.37646,0.37646 -1.00265,0.39484 -1.42857,0.71428 -1.33333,1 -2.23809,2.57143 -3.57143,3.57143 -0.42592,0.31944 -0.95238,0.47619 -1.42857,0.71429 -0.47619,0.47619 -0.88982,1.02451 -1.42857,1.42857 -0.42592,0.31944 -1.05211,0.33782 -1.42857,0.71428 -0.37646,0.37647 -0.33783,1.05211 -0.71429,1.42858 -0.37646,0.37646 -1.00265,0.39484 -1.42857,0.71428 -1.33333,1 -2.23809,2.57143 -3.57143,3.57143 -0.42592,0.31944 -1.00265,0.39485 -1.42857,0.71429 -0.53875,0.40406 -0.88982,1.02451 -1.42857,1.42857 -0.42592,0.31943 -1.05211,0.33782 -1.42857,0.71428 -0.37646,0.37646 -0.33783,1.05211 -0.71429,1.42857 -0.37646,0.37647 -1.00265,0.39485 -1.42857,0.71429 -1.6,1.2 -2.68571,3.08571 -4.28571,4.28571 -0.42592,0.31944 -1.00266,0.39485 -1.42858,0.71429 -0.53874,0.40406 -0.95238,0.95238 -1.42857,1.42857 -0.47619,0.47619 -0.95238,0.95238 -1.42857,1.42857 -0.95238,0.95238 -2.01576,1.80542 -2.85714,2.85715 -1.07256,1.34069 -1.78459,2.94501 -2.85714,4.28571 -0.4207,0.52586 -1.00788,0.90271 -1.42858,1.42857 -0.53627,0.67035 -0.89229,1.47251 -1.42857,2.14286 -0.42069,0.52586 -1.00788,0.9027 -1.42857,1.42857 -1.07256,1.3407 -1.78458,2.94502 -2.85714,4.28571 -0.42069,0.52587 -1.00788,0.90271 -1.42857,1.42858 -1.07256,1.34069 -1.75799,2.96673 -2.85715,4.28571 -1.0778,1.29337 -2.51969,2.25677 -3.57142,3.57143 -1.07256,1.34069 -1.64309,3.07166 -2.85715,4.28571 -0.60702,0.60703 -1.47251,0.8923 -2.14285,1.42857 -3.53426,2.82741 0.85541,-0.14112 -2.85715,3.57143 -0.60702,0.60703 -1.48336,0.879 -2.14285,1.42857 -1.29337,1.07781 -2.38096,2.38096 -3.57143,3.57143 -3.33334,3.33334 -6.66667,6.66667 -10,10 -1.19048,1.19048 -2.27806,2.49362 -3.57143,3.57143 -1.31898,1.09915 -2.96673,1.75799 -4.28572,2.85714 -1.55204,1.29337 -2.73367,2.99235 -4.28571,4.28572 -0.65949,0.54957 -1.48337,0.87899 -2.14286,1.42857 -0.77602,0.64668 -1.42857,1.42857 -2.14285,2.14286 -2.14286,2.14285 -4.28572,4.28571 -6.42858,6.42857 -0.71428,0.71428 -1.36683,1.49617 -2.14285,2.14286 -0.65949,0.54957 -1.48337,0.87899 -2.14286,1.42857 -1.55204,1.29336 -2.85714,2.85714 -4.28571,4.28571 -1.19048,1.19048 -2.38096,2.38095 -3.57143,3.57143 -0.71429,0.71429 -1.49618,1.36684 -2.14286,2.14286 -0.54958,0.65949 -0.82154,1.53583 -1.42857,2.14285 -0.60703,0.60703 -1.53583,0.82155 -2.14286,1.42858 -0.60702,0.60702 -0.87899,1.48336 -1.42857,2.14285 -0.64668,0.77602 -1.42857,1.42857 -2.14286,2.14286 -4.7619,4.7619 -9.52381,9.52381 -14.28571,14.28571 -2.78261,2.78261 -1.50311,1.50311 -4.28572,4.28572 -0.71428,0.71428 -1.49617,1.36683 -2.14285,2.14286 -0.54958,0.65949 -0.879,1.48336 -1.42857,2.14285 -1.29337,1.55204 -2.85715,2.85715 -4.28572,4.28572 -0.71428,0.71428 -1.36683,1.49617 -2.14286,2.14285 -0.65949,0.54958 -1.48336,0.879 -2.14285,1.42858 -0.77602,0.64668 -1.42857,1.42857 -2.14286,2.14285 -1.42857,1.42857 -2.85714,2.85715 -4.28571,4.28572 -0.71429,0.71428 -1.36684,1.49617 -2.14286,2.14285 -0.65949,0.54958 -1.48337,0.879 -2.14286,1.42858 -0.77602,0.64668 -1.36683,1.49617 -2.14286,2.14285 -0.65949,0.54958 -1.48336,0.879 -2.14285,1.42857 -1.55204,1.29337 -2.73368,2.99235 -4.28572,4.28572 -0.65949,0.54957 -1.48336,0.87899 -2.14285,1.42857 -0.77602,0.64668 -1.42858,1.42857 -2.14286,2.14286 -0.71429,0.71428 -1.49617,1.36683 -2.14286,2.14285 -0.54957,0.65949 -0.82154,1.53583 -1.42857,2.14286 -5.61866,5.61866 1.56513,-3.44958 -4.28571,3.57143 -0.54958,0.65949 -0.8923,1.47251 -1.42858,2.14286 -1.05172,1.31466 -2.49362,2.27806 -3.57142,3.57143 -0.54958,0.65949 -0.879,1.48336 -1.42858,2.14285 -1.0778,1.29337 -2.38095,2.38095 -3.57142,3.57143 -1.90477,1.90476 -3.80953,3.80952 -5.71429,5.71429 -0.71429,0.71428 -1.49617,1.36683 -2.14286,2.14285 -0.54957,0.65949 -0.82154,1.53583 -1.42857,2.14286 -0.60702,0.60703 -1.53583,0.82155 -2.14286,1.42857 -0.60702,0.60703 -0.82154,1.53583 -1.42857,2.14286 -0.60702,0.60703 -1.47251,0.89229 -2.14285,1.42857 -0.52587,0.42069 -0.95238,0.95238 -1.42858,1.42857 -0.71428,0.71429 -1.42857,1.42857 -2.14285,2.14286 -1.19048,1.19048 -2.49362,2.27806 -3.57143,3.57143 -0.54958,0.65949 -0.82155,1.53583 -1.42857,2.14286 -0.60703,0.60702 -1.53583,0.82154 -2.14286,1.42857 -0.60703,0.60702 -0.82154,1.53583 -1.42857,2.14285 -0.60703,0.60703 -1.47251,0.8923 -2.14286,1.42858 -0.52586,0.42069 -0.90271,1.00788 -1.42857,1.42857 -0.67035,0.53628 -1.47251,0.89229 -2.14286,1.42857 -1.56794,1.25435 -2.71777,3.03136 -4.28571,4.28571 -0.67035,0.53628 -1.47251,0.8923 -2.14286,1.42857 -0.52586,0.4207 -1.02451,0.88983 -1.42857,1.42858 -1.5644,2.08586 0.35655,0.98259 -2.14286,2.85714 -0.42591,0.31944 -0.95238,0.47619 -1.42857,0.71428 -0.71428,0.47619 -1.47251,0.8923 -2.14286,1.42858 -1.05172,0.84138 -1.70221,2.16418 -2.85714,2.85714 -0.64562,0.38737 -1.49723,0.32691 -2.14286,0.71428 -1.15493,0.69296 -1.80541,2.01576 -2.85714,2.85715 -0.67035,0.53628 -1.47251,0.89229 -2.14286,1.42857 -0.52586,0.42069 -0.9027,1.00788 -1.42857,1.42857 -0.67035,0.53628 -1.47251,0.89229 -2.14285,1.42857 -0.52587,0.42069 -0.88983,1.02451 -1.42858,1.42857 -0.42591,0.31944 -0.97204,0.44037 -1.42857,0.71429 -0.73612,0.44167 -1.42857,0.95238 -2.14285,1.42857 -0.71429,0.47619 -1.47251,0.89229 -2.14286,1.42857 -0.52587,0.42069 -0.90271,1.00788 -1.42857,1.42857 -0.67035,0.53628 -1.47251,0.8923 -2.14286,1.42857 -0.52586,0.4207 -0.90271,1.00788 -1.42857,1.42858 -2.00349,1.60278 -4.42509,2.68292 -6.42857,4.28571 -1.32275,1.0582 -2.18254,2.57936 -3.57143,3.57143 -0.86646,0.6189 -1.93264,0.90028 -2.85714,1.42857 -3.38565,1.93466 -1.06246,0.88538 -4.28572,3.57143 -0.65949,0.54957 -1.48336,0.87899 -2.14286,1.42857 -0.77602,0.64668 -1.36683,1.49617 -2.14285,2.14286 -0.65949,0.54957 -1.48337,0.87899 -2.14286,1.42857 -0.77602,0.64668 -1.36684,1.49617 -2.14286,2.14286 -1.9108,1.59233 -4.47575,2.72345 -6.42857,4.28571 -0.52586,0.42069 -0.90271,1.00788 -1.42857,1.42857 -0.67035,0.53628 -1.48337,0.879 -2.14286,1.42857 -0.77602,0.64669 -1.36683,1.49618 -2.14285,2.14286 -4.64473,3.87061 0.31638,-0.6184 -4.28572,2.14286 -0.57746,0.34648 -0.90271,1.00788 -1.42857,1.42857 -1.3407,1.07256 -2.94502,1.78458 -4.28571,2.85714 -0.52587,0.42069 -0.90271,1.00788 -1.42858,1.42857 -0.67034,0.53628 -1.4725,0.8923 -2.14285,1.42857 -0.52587,0.4207 -0.90271,1.00788 -1.42857,1.42858 -2.63275,2.10619 -1.34594,0.80756 -3.57143,2.14285 -2.20588,1.32353 -4.22269,2.96219 -6.42857,4.28572 -0.45653,0.27391 -0.97205,0.44037 -1.42858,0.71428 -0.73612,0.44168 -1.42857,0.95238 -2.14285,1.42857 -0.71429,0.47619 -1.47251,0.8923 -2.14286,1.42858 -0.52586,0.42069 -0.85111,1.08209 -1.42857,1.42857 -0.64563,0.38737 -1.49723,0.32691 -2.14286,0.71428 -0.57746,0.34648 -0.90271,1.00788 -1.42857,1.42857 -0.67035,0.53628 -1.47251,0.8923 -2.14286,1.42858 -0.52586,0.42069 -0.88982,1.02451 -1.42857,1.42857 -0.42592,0.31944 -1.00265,0.39484 -1.42857,0.71428 -0.53875,0.40406 -0.85111,1.08209 -1.42857,1.42857 -0.64563,0.38738 -1.44379,0.43466 -2.14286,0.71429 -1.45993,0.58397 -2.87877,1.43939 -4.28571,2.14286 -0.47619,0.23809 -0.95238,0.47619 -1.42857,0.71428 -0.47619,0.2381 -1.00266,0.39485 -1.42858,0.71429 -3.61006,2.70755 0.60078,0.4139 -2.85714,2.14286 -1.42857,0.71428 -2.85714,1.42857 -4.28571,2.14285 -0.47619,0.2381 -1.00266,0.39485 -1.42857,0.71429 -0.53875,0.40406 -0.88983,1.02451 -1.42858,1.42857 -0.42591,0.31944 -0.95238,0.47619 -1.42857,0.71429 -0.95238,0.47619 -1.90476,0.95238 -2.85714,1.42857 -0.47619,0.23809 -0.98559,0.41896 -1.42857,0.71428 -0.28017,0.18678 -0.43412,0.52751 -0.71429,0.71429 -0.44298,0.29532 -0.95238,0.47619 -1.42857,0.71428 -0.47619,0.2381 -0.92349,0.54593 -1.42857,0.71429 -2.12631,0.70877 1.46558,-1.69134 -2.14286,0.71429 -0.28016,0.18677 -0.41311,0.5637 -0.71428,0.71428 -0.21296,0.10648 -0.50133,-0.10648 -0.71429,0 -0.75294,0.37647 -0.67563,1.0521 -1.42857,1.42857 -0.21296,0.10648 -0.50133,-0.10648 -0.71429,0 -0.30116,0.15059 -0.41311,0.5637 -0.71428,0.71429 -0.21296,0.10648 -0.50133,-0.10648 -0.71429,0 -0.30117,0.15058 -0.41311,0.5637 -0.71428,0.71428 -0.21296,0.10648 -0.50133,-0.10648 -0.71429,0 -0.30117,0.15059 -0.41311,0.56371 -0.71428,0.71429 -0.21296,0.10648 -0.50133,-0.10648 -0.71429,0 -0.30117,0.15058 -0.41312,0.5637 -0.71429,0.71429 -0.57142,0.28571 -1.57142,-0.28572 -2.14285,0 -0.30117,0.15058 -0.41312,0.5637 -0.71429,0.71428 -0.18781,0.0939 -2.48363,0 -2.85714,0 -0.49682,0 -3.31312,0.12916 -3.57143,0 -0.30117,-0.15058 -0.41312,-0.5637 -0.71429,-0.71428 -0.42591,-0.21296 -1.00265,0.21295 -1.42857,0 -2.97268,-1.48635 0.7636,0.0493 -0.71428,-1.42858 -0.16836,-0.16835 -0.54593,0.16836 -0.71429,0 -0.33672,-0.33671 0.21296,-1.00265 0,-1.42857 -0.15058,-0.30117 -0.5637,-0.41311 -0.71428,-0.71428 -0.21296,-0.42592 0.21295,-1.00266 0,-1.42857 -0.15059,-0.30117 -0.56371,-0.41312 -0.71429,-0.71429 -0.10869,-0.21738 0,-1.82117 0,-2.14286 0,-0.64383 -0.14986,-3.12186 0,-3.57143 0.16836,-0.50507 0.54593,-0.92349 0.71429,-1.42857 0.15058,-0.45175 -0.21296,-1.00265 0,-1.42857 0.15058,-0.30117 0.5637,-0.41312 0.71428,-0.71428 0.10648,-0.21296 0,-0.4762 0,-0.71429 0.2381,-0.47619 0.41897,-0.98559 0.71429,-1.42857 0.37355,-0.56033 1.05501,-0.86824 1.42857,-1.42857 0.59064,-0.88597 0.83793,-1.97118 1.42857,-2.85715 0.18678,-0.28016 0.52751,-0.43412 0.71429,-0.71428 0.0887,-0.13305 1.3828,-2.81137 1.42857,-2.85714 0.37646,-0.37647 1.00265,-0.39485 1.42857,-0.71429 0.53875,-0.40406 0.8511,-1.08209 1.42857,-1.42857 0.64563,-0.38738 1.49723,-0.32691 2.14286,-0.71429 0.57746,-0.34648 0.9027,-1.00788 1.42857,-1.42857 0.83512,-1.29625 2.46077,-1.30986 3.57143,-2.14286 0.53875,-0.40406 0.88982,-1.02451 1.42857,-1.42857 0.85183,-0.63887 1.97118,-0.83793 2.85714,-1.42857 0.28017,-0.18678 0.43412,-0.52751 0.71429,-0.71428 0.44298,-0.29533 1.00265,-0.39485 1.42857,-0.71429 0.53875,-0.40406 0.88982,-1.02451 1.42857,-1.42857 0.42592,-0.31944 1.05211,-0.33783 1.42857,-0.71429 3.71255,-3.71255 -0.67712,-0.74402 2.85714,-3.57143 0.67035,-0.53627 1.53584,-0.82154 2.14286,-1.42857 5.61866,-5.61866 -3.44958,1.56513 3.57143,-4.28571 1.31898,-1.09915 2.96673,-1.75799 4.28571,-2.85714 0.77603,-0.64669 1.32087,-1.55572 2.14286,-2.14286 0.86646,-0.6189 1.93264,-0.90029 2.85714,-1.42857 1.46225,-0.83557 3.77355,-2.65159 5,-3.57143 0.95239,-0.71429 1.95327,-1.36811 2.85715,-2.14286 0.76696,-0.6574 1.37589,-1.48546 2.14285,-2.14286 2.471,-2.11799 5.38615,-3.59629 7.85715,-5.71428 0.76696,-0.6574 1.37589,-1.48546 2.14285,-2.14286 1.80776,-1.5495 3.90654,-2.73621 5.71429,-4.28571 0.76697,-0.6574 1.32086,-1.55572 2.14286,-2.14286 0.86646,-0.6189 1.99068,-0.80967 2.85714,-1.42857 0.822,-0.58714 1.42857,-1.42857 2.14286,-2.14286 1.42857,-1.42857 2.97091,-2.75178 4.28571,-4.28571 0.77475,-0.90388 1.36811,-1.95327 2.14286,-2.85715 1.3148,-1.53393 2.97092,-2.75178 4.28571,-4.28571 0.77475,-0.90388 1.36811,-1.95327 2.14286,-2.85714 0.6574,-0.76697 1.48546,-1.3759 2.14286,-2.14286 0.77475,-0.90388 1.3681,-1.95327 2.14285,-2.85714 0.6574,-0.76697 1.49618,-1.36684 2.14286,-2.14286 0.54958,-0.65949 0.879,-1.48337 1.42857,-2.14286 1.29337,-1.55204 2.97092,-2.75178 4.28572,-4.28571 2.0009,-2.33439 1.95629,-2.73881 3.57143,-5 0.69195,-0.96873 1.42857,-1.90476 2.14285,-2.85714 0.71429,-0.95239 1.36811,-1.95327 2.14286,-2.85715 0.6574,-0.76696 1.48546,-1.37589 2.14286,-2.14285 5.49789,-6.41422 -1.0315,0.31721 4.28571,-5 1.42857,-1.42858 2.85714,-2.85715 4.28572,-4.28572 0.71428,-0.71428 1.37589,-1.48546 2.14285,-2.14286 0.90388,-0.77475 2.01535,-1.30106 2.85715,-2.14285 0.84179,-0.8418 1.3681,-1.95327 2.14285,-2.85715 1.3148,-1.53393 2.97092,-2.75178 4.28572,-4.28571 0.77475,-0.90388 1.35892,-1.96122 2.14285,-2.85714 2.43363,-2.78129 5.42352,-5.07586 7.85715,-7.85715 6.88562,-7.86927 -3.15047,2.43619 5,-5.71428 1.66666,-1.66667 3.22616,-3.44789 5,-5 0.89592,-0.78394 2.01535,-1.30107 2.85714,-2.14286 7.55083,-7.55083 -3.90307,2.0759 5,-5.71428 0.89592,-0.78394 1.96122,-1.35893 2.85714,-2.14286 1.77384,-1.55211 3.21042,-3.46607 5,-5 0.90388,-0.77475 2.01535,-1.30107 2.85715,-2.14286 0.84179,-0.84179 1.30106,-2.01535 2.14285,-2.85714 0.8418,-0.8418 2.01535,-1.30107 2.85715,-2.14286 0.84179,-0.84179 1.30106,-2.01535 2.14285,-2.85714 0.8418,-0.8418 2.01535,-1.30107 2.85715,-2.14286 0.84179,-0.84179 1.35892,-1.96122 2.14285,-2.85714 2.43363,-2.78129 5.42352,-5.07586 7.85715,-7.85714 0.78393,-0.89593 1.3681,-1.95327 2.14285,-2.85715 0.6574,-0.76696 1.48546,-1.37589 2.14286,-2.14285 0.77475,-0.90388 1.36811,-1.95327 2.14286,-2.85715 1.94708,-2.2716 4.51645,-4.13403 6.42857,-6.42857 0.54957,-0.65949 0.87899,-1.48337 1.42857,-2.14286 1.71741,-2.06089 3.99688,-3.65339 5.71429,-5.71428 1.09915,-1.31898 1.75799,-2.96673 2.85714,-4.28572 1.07781,-1.29336 2.38095,-2.38095 3.57143,-3.57142 1.90476,-1.90477 3.80952,-3.80953 5.71428,-5.71429 0.47619,-0.47619 1.00788,-0.90271 1.42857,-1.42857 3.80953,-5.71429 -1.19047,1.19047 3.57143,-3.57143 0.60703,-0.60703 0.82155,-1.53583 1.42857,-2.14286 0.60703,-0.60702 1.53584,-0.82154 2.14286,-1.42857 0.60703,-0.60703 0.89229,-1.47251 1.42857,-2.14286 1.46342,-1.82926 3.53659,-3.17073 5,-5 0.53628,-0.67034 0.82155,-1.53583 1.42857,-2.14285 0.60703,-0.60703 1.53584,-0.82155 2.14286,-1.42857 0.60703,-0.60703 0.82155,-1.53584 1.42857,-2.14286 0.60703,-0.60703 1.53583,-0.82155 2.14286,-1.42857 3.71255,-3.71256 -0.67712,-0.74402 2.85714,-3.57143 0.67035,-0.53628 1.47251,-0.89229 2.14286,-1.42857 1.05173,-0.84139 1.77965,-2.04902 2.85714,-2.85715 0.42592,-0.31943 1.00266,-0.39484 1.42857,-0.71428 0.53875,-0.40406 0.95239,-0.95238 1.42858,-1.42857 0.47619,-0.47619 0.95238,-0.95238 1.42857,-1.42857 1.90476,-1.90477 3.80952,-3.80953 5.71428,-5.71429 0.815,-0.81499 2.68227,-2.90456 3.57143,-3.57143 0.42592,-0.31944 1.00266,-0.39485 1.42857,-0.71428 0.53875,-0.40407 0.88983,-1.02452 1.42857,-1.42858 0.42592,-0.31943 1.05211,-0.33782 1.42858,-0.71428 0.37646,-0.37646 0.33782,-1.05211 0.71428,-1.42857 1.73486,-1.73486 1.04887,0.2124 2.14286,-1.42857 0.29532,-0.44299 0.33782,-1.05211 0.71428,-1.42858 0.37647,-0.37646 1.05211,-0.33782 1.42858,-0.71428 0.37646,-0.37646 0.41896,-0.98559 0.71428,-1.42857 0.18678,-0.28017 0.47619,-0.47619 0.71429,-0.71429 0.47619,-0.47619 0.95238,-0.95238 1.42857,-1.42857 0.23809,-0.2381 0.43412,-0.52751 0.71428,-0.71429 5.71429,-3.80952 -2.61904,2.61905 2.14286,-2.14285 0.37646,-0.37647 1.05211,-0.33783 1.42857,-0.71429 0.37646,-0.37646 0.33783,-1.05211 0.71429,-1.42857 0.37646,-0.37646 0.98559,-0.41897 1.42857,-0.71429 0.66844,-0.44562 2.39969,-2.39968 2.85714,-2.85714 0.71429,-0.71428 1.53677,-1.33473 2.14286,-2.14286 0.31944,-0.42591 0.33782,-1.05211 0.71429,-1.42857 0.37646,-0.37646 1.05211,-0.33782 1.42857,-0.71428 0.37646,-0.37647 0.33782,-1.05211 0.71428,-1.42857 0.37646,-0.37647 1.00266,-0.39485 1.42857,-0.71429 0.53875,-0.40406 0.88983,-1.02451 1.42858,-1.42857 0.42591,-0.31944 1.00265,-0.39485 1.42857,-0.71429 1.33333,-1 2.23809,-2.57143 3.57143,-3.57143 0.42591,-0.31943 1.00265,-0.39484 1.42857,-0.71428 0.53875,-0.40406 0.88982,-1.02451 1.42857,-1.42857 0.42592,-0.31944 1.05211,-0.33783 1.42857,-0.71429 0.37646,-0.37646 0.33782,-1.05211 0.71429,-1.42857 0.75292,-0.75292 2.0053,-0.7897 2.85714,-1.42857 1.33333,-1 2.23809,-2.57143 3.57143,-3.57143 0.42592,-0.31944 1.00265,-0.39485 1.42857,-0.71429 0.53875,-0.40406 0.88982,-1.02451 1.42857,-1.42857 0.42592,-0.31944 1.00265,-0.39485 1.42857,-0.71428 1.33334,-1 2.2381,-2.57143 3.57143,-3.57143 0.85184,-0.63888 2.00531,-0.7897 2.85714,-1.42857 0.53875,-0.40406 0.88983,-1.02451 1.42857,-1.42857 0.42592,-0.31944 1.00266,-0.39485 1.42858,-0.71429 5.13784,-3.85338 -1.50742,0.79313 2.14285,-2.85714 0.37646,-0.37647 1.00266,-0.39485 1.42857,-0.71429 0.53875,-0.40406 0.88983,-1.02451 1.42858,-1.42857 0.42591,-0.31944 1.00265,-0.39485 1.42857,-0.71429 2.1397,-1.60477 0.71744,-1.25236 2.85714,-2.85714 0.42592,-0.31944 0.95238,-0.47619 1.42857,-0.71428 0.47619,-0.4762 0.88983,-1.02452 1.42857,-1.42858 0.42592,-0.31943 1.05211,-0.33782 1.42857,-0.71428 0.37647,-0.37646 0.33783,-1.05211 0.71429,-1.42857 0.75292,-0.75293 2.00531,-0.7897 2.85714,-1.42857 0.53875,-0.40407 0.88983,-1.02452 1.42857,-1.42858 0.42592,-0.31943 1.05211,-0.33782 1.42858,-0.71428 0.37646,-0.37646 0.33782,-1.05211 0.71428,-1.42857 0.37646,-0.37647 0.98559,-0.41897 1.42857,-0.71429 0.28017,-0.18678 0.43412,-0.52751 0.71429,-0.71428 0.44298,-0.29533 0.98559,-0.41897 1.42857,-0.71429 0.28017,-0.18678 0.47619,-0.47619 0.71429,-0.71429 0.47619,-0.23809 0.98559,-0.41896 1.42857,-0.71428 0.28016,-0.18678 0.43412,-0.52751 0.71428,-0.71429 0.44298,-0.29532 0.98559,-0.41896 1.42857,-0.71428 0.28017,-0.18678 0.43412,-0.52751 0.71429,-0.71429 0.44298,-0.29532 0.98559,-0.41896 1.42857,-0.71428 0.28017,-0.18678 0.41312,-0.56371 0.71429,-0.71429 0.21296,-0.10648 0.50132,0.10648 0.71428,0 0.60234,-0.30117 0.86824,-1.05502 1.42857,-1.42857 0.35971,-1.57369 1.46943,-0.37757 2.14286,-0.71429 0.65647,-0.32823 2.31515,-2.67648 2.85714,-2.85714 0.45176,-0.15059 0.97682,0.15058 1.42858,0 0.31943,-0.10648 0.41311,-0.5637 0.71428,-0.71429 0.21296,-0.10648 0.48841,0.0753 0.71429,0 0.50507,-0.16836 0.92349,-0.54592 1.42857,-0.71428 0.22588,-0.0753 0.50133,0.10648 0.71428,0 0.30117,-0.15059 0.41312,-0.5637 0.71429,-0.71429 0.21296,-0.10648 0.50133,0.10648 0.71429,0 0.30117,-0.15058 0.41311,-0.5637 0.71428,-0.71428 0.21296,-0.10648 0.50133,0.10648 0.71429,0 2.36899,-2.36899 -0.67344,0.33671 1.42857,-0.71429 0.30117,-0.15058 0.41312,-0.5637 0.71428,-0.71428 0.21296,-0.10648 0.50133,0.10647 0.71429,0 0.30117,-0.15059 0.41312,-0.56371 0.71429,-0.71429 0.21296,-0.10648 0.50132,0.10648 0.71428,0 0.30117,-0.15059 0.41312,-0.5637 0.71429,-0.71429 0.49338,-0.24669 3.3207,0.25073 3.57143,0 0.16836,-0.16836 -0.16836,-0.54592 0,-0.71428 0.023,-0.023 1.96962,0 2.14285,0 1.42857,0 2.85715,0 4.28572,0 0.47619,0 0.9666,-0.1155 1.42857,0 0.5165,0.12912 0.92349,0.54592 1.42857,0.71428 0.59866,0.19956 2.38377,-0.23668 2.85714,0 0.30117,0.15059 0.41312,0.5637 0.71429,0.71429 0.18468,0.0923 3.77943,0 4.28571,0 0.2381,0 0.54593,-0.16836 0.71429,0 0.16836,0.16836 -0.16836,0.54593 0,0.71429 0.14603,0.14602 1.85965,-0.14161 2.14286,0 0.30117,0.15058 0.41311,0.5637 0.71428,0.71428 0.44895,0.22447 2.4082,-0.22447 2.85714,0 0.30117,0.15059 0.41312,0.5637 0.71429,0.71429 0.21296,0.10648 0.47619,0 0.71429,0 0.23809,0 0.47619,0 0.71428,0 1.42857,0 2.85714,0 4.28572,0 0.47619,0 0.98644,-0.17686 1.42857,0 0.98863,0.39545 1.90476,0.95238 2.85714,1.42857 z"
       style="fill:none;stroke:#0000ff;stroke-width:1px;stroke-linecap:butt;stroke-linejoin:miter;stroke-opacity:1" />
    <path
       inkscape:connector-curvature="0"
       id="path4877"
       d="m 143.57143,980.93361 305,-275"
       style="stroke-linejoin:miter;marker-end:url(#Arrow1Mendl);stroke-opacity:1;marker-start:none;stroke:#ff0000;stroke-linecap:butt;stroke-width:1px;fill:none" />
    <path
       style="fill:none;stroke:#000000;stroke-width:1px;stroke-linecap:butt;stroke-linejoin:miter;stroke-opacity:1"
       d="m 50.714286,15.93361 c 0.238095,-1.190476 0.714285,-2.357376 0.714285,-3.571428 0,-0.752924 -0.47619,-1.428572 -0.714285,-2.142858 C 50.476191,9.5050387 50.238095,8.7907529 50,8.0764672 49.761905,7.3621815 49.737468,6.5359487 49.285714,5.9336101 48.966276,5.5076924 48.300124,5.5146452 47.857143,5.2193244 47.576977,5.0325471 47.444026,4.354454 47.142857,4.5050387 46.666667,4.7431339 46.74801,5.5076924 46.428571,5.9336101 46.02451,6.4723581 45.373555,6.8018497 45,7.3621815 c -1.494078,2.2411168 -1.514689,3.2016125 -2.142857,5.7142855 -0.238095,0.952381 -0.476191,1.904762 -0.714286,2.857143 -0.238095,0.952381 -0.592522,1.883032 -0.714286,2.857143 -0.118128,0.945027 0,1.904762 0,2.857143 0,0.714286 0,1.428571 0,2.142857 0,0.47619 -0.115493,0.966599 0,1.428571 0.417214,1.668856 1.565422,1.839124 2.142858,3.571429 0.07529,0.225877 -0.07529,0.488409 0,0.714286 0.168358,0.505076 0.714285,0.896174 0.714285,1.428571 0,0.981692 -0.592521,1.883032 -0.714285,2.857143 -0.118129,0.945027 0.230986,1.933198 0,2.857143 -0.258251,1.033002 -0.952381,1.904762 -1.428572,2.857143 -0.477086,0.954172 -1.351323,3.359083 -2.857143,2.857143 -0.505076,-0.168359 -1.052109,-0.337825 -1.428571,-0.714286 -0.376462,-0.376462 -0.476191,-0.952381 -0.714286,-1.428572 -0.238095,-0.47619 -0.58516,-0.91207 -0.714286,-1.428571 -0.135797,-0.54319 0,-2.973294 0,-3.571429"
       id="path5698"
       inkscape:connector-curvature="0" />
    <path
       style="fill:none;stroke:#000000;stroke-width:1px;stroke-linecap:butt;stroke-linejoin:miter;stroke-opacity:1"
       d="m 46.428571,23.076467 c -1.102475,0.826857 -3.3127,2.274077 -4.285714,3.571429 -0.319438,0.425918 -0.337824,1.05211 -0.714286,1.428571 -0.376461,0.376462 -1.13325,0.271305 -1.428571,0.714286 -0.264143,0.396214 0.150585,0.976817 0,1.428571 -0.882644,2.647934 -0.714286,-0.870679 -0.714286,1.428572"
       id="path5700"
       inkscape:connector-curvature="0" />
    <path
       style="fill:none;stroke:#000000;stroke-width:1px;stroke-linecap:butt;stroke-linejoin:miter;stroke-opacity:1"
       d="m 54.285714,25.93361 c 0.238096,0.952381 0.552897,1.888808 0.714286,2.857143 0.07829,0.469711 0,0.952381 0,1.428571 0,0.714286 0,1.428572 0,2.142858 0,2.619047 0,5.238095 0,7.857142"
       id="path5702"
       inkscape:connector-curvature="0" />
    <path
       style="fill:none;stroke:#000000;stroke-width:1px;stroke-linecap:butt;stroke-linejoin:miter;stroke-opacity:1"
       d="m 63.571429,36.647896 c 0.714285,-0.952381 1.61046,-1.792349 2.142857,-2.857143 0.212959,-0.425918 0,-0.952381 0,-1.428571 0,-0.476191 0,-0.952381 0,-1.428572 0,-0.714286 0,-1.428571 0,-2.142857 0,-0.168067 0.266106,-2.408964 -0.714286,-1.428571 -0.168359,0.168358 0.07529,0.488408 0,0.714285 -0.168359,0.505077 -0.516558,0.934253 -0.714286,1.428572 -0.450036,1.12509 -2.465894,7.142857 -0.714285,7.142857 2.048172,0 2.435306,-3.295817 3.571428,-5 0.295321,-0.442981 0.585161,-0.912071 0.714286,-1.428572 0.115493,-0.461972 0,-0.952381 0,-1.428571 0,-0.238095 0.168359,-0.882645 0,-0.714286 -0.376462,0.376462 -0.476191,0.952381 -0.714286,1.428572 -0.238095,0.47619 -0.58516,0.91207 -0.714286,1.428571 -0.115493,0.461973 0.212959,1.002654 0,1.428572 -0.767834,1.535668 -3.229597,2.60967 -2.857142,4.285714 0.346479,1.559157 3.083705,1.091099 4.285714,2.142857 0.111799,0.09782 2.617321,5.354553 2.857143,5.714286 0.510545,0.765818 4.355516,5.2685 5,6.428571 0.622682,1.120829 1.060139,2.343321 1.428571,3.571429 0.975555,3.25185 1.083107,6.75068 0,10 -0.336717,1.010152 -0.952381,1.904762 -1.428571,2.857143 -0.476191,0.952381 -0.675648,2.104219 -1.428572,2.857142 -0.532397,0.532398 -1.428571,0.476191 -2.142857,0.714286 C 71.428572,71.171705 70.742679,71.771676 70,71.647896 68.918724,71.467683 67.191836,69.554017 66.428571,68.790753"
       id="path5704"
       inkscape:connector-curvature="0" />
    <path
       style="fill:none;stroke:#000000;stroke-width:1px;stroke-linecap:butt;stroke-linejoin:miter;stroke-opacity:1"
       d="m 102.14286,9.5050387 c 0.36714,1.4685563 1.31522,5.0683543 1.42857,6.4285713 0.13841,1.66091 0,3.333333 0,5 0,1.666667 0,3.333333 0,5 0,1.666667 0.13841,3.339091 0,5 -0.10082,1.209859 -0.58022,2.364802 -0.71429,3.571429 -0.17763,1.598662 0,3.994484 0,5.714285"
       id="path5706"
       inkscape:connector-curvature="0" />
    <path
       style="fill:none;stroke:#000000;stroke-width:1px;stroke-linecap:butt;stroke-linejoin:miter;stroke-opacity:1"
       d="m 48.571429,541.6479 c -0.408362,-1.02091 -1.189135,-4.3328 -2.857143,-5 -0.663198,-0.26528 -1.428572,0 -2.142857,0 -0.476191,0 -1.002654,-0.21296 -1.428572,0 -0.602338,0.30117 -0.952381,0.95238 -1.428571,1.42857 -0.476191,0.47619 -0.952381,0.95238 -1.428572,1.42857 -0.47619,0.47619 -1.082092,0.8511 -1.428571,1.42857 -0.860276,1.43379 -0.910574,3.4297 -0.714286,5 0.121764,0.97411 0.52176,1.89452 0.714286,2.85714 0.28403,1.42016 0.363027,2.88068 0.714286,4.28572 0.365221,1.46088 0.952381,2.85714 1.428571,4.28571 0.952381,2.85714 1.904762,5.71429 2.857143,8.57143 1.259286,3.77786 2.594412,7.36458 2.142857,11.42857 -0.204914,1.84423 -0.797247,3.65439 -2.142857,5 -0.607026,0.60703 -1.472509,0.89229 -2.142857,1.42857 -0.525865,0.4207 -0.803303,1.17847 -1.428572,1.42857 -2.387782,0.95512 -5.027399,-1.51076 -5.714285,-3.57142 -0.335026,-1.00508 0.305438,-0.61088 0.714285,-1.42858 0.10648,-0.21295 0,-0.47619 0,-0.71428"
       id="path5708"
       inkscape:connector-curvature="0" />
    <path
       style="fill:none;stroke:#000000;stroke-width:1px;stroke-linecap:butt;stroke-linejoin:miter;stroke-opacity:1"
       d="m 45,566.6479 c -0.865485,0.14424 -5.075951,0.617 -6.428571,1.42857 -1.636543,0.98192 -2.727474,4.02637 -3.571429,5.71428"
       id="path5710"
       inkscape:connector-curvature="0" />
    <path
       style="fill:none;stroke:#000000;stroke-width:1px;stroke-linecap:butt;stroke-linejoin:miter;stroke-opacity:1"
       d="m 52.142857,565.21932 c 0.476191,1.42858 0.952381,2.85715 1.428572,4.28572 0,0.47619 -0.09339,0.96163 0,1.42857 0.14766,0.7383 0.566625,1.40456 0.714285,2.14286 0.09339,0.46694 0,0.95238 0,1.42857 0,0.95238 0,1.90476 0,2.85714 0,1.66667 -0.47619,1.42857 0.714286,1.42857"
       id="path5712"
       inkscape:connector-curvature="0" />
    <path
       style="fill:none;stroke:#000000;stroke-width:1px;stroke-linecap:butt;stroke-linejoin:miter;stroke-opacity:1"
       d="m 60.714286,574.50504 c 1.567573,-1.17568 3.091935,-1.65346 3.571428,-3.57143 0.115494,-0.46197 -0.115493,-0.9666 0,-1.42857 C 65.212959,565.79606 65,570.26757 65,566.6479 c 0,-0.47619 0,-0.95238 0,-1.42858 0,-0.47619 0.212959,-1.00265 0,-1.42857 -0.308085,-0.61617 -0.987683,0.2734 -1.428571,0.71429 -1.026449,1.02645 -1.100266,0.88731 -1.428572,2.85714 -0.117428,0.70457 0.140083,1.44244 0,2.14286 -1.122438,5.61219 -2.602049,4.08162 0,9.28571 0.10648,0.21296 0.476191,0 0.714286,0 0.238095,0 0.501327,0.10648 0.714286,0 0.301169,-0.15058 0.413116,-0.5637 0.714285,-0.71428 0.212959,-0.10648 0.545927,0.16836 0.714286,0 0.168359,-0.16836 -0.106479,-0.50133 0,-0.71429 0.649488,-1.29897 1.992566,-0.64843 2.857143,0 2.054695,1.54102 1.327891,1.83891 2.857143,4.28572 0.630951,1.00952 1.4825,1.8666 2.142857,2.85714 1.793793,2.69069 2.209869,3.70545 3.571429,6.42857 1.416003,2.83201 1.820765,2.57674 1.428571,5.71429 -0.121764,0.97411 -0.169741,2.04032 -0.714286,2.85714 -1.406606,2.10991 -7.134786,2.57304 -9.285714,2.14286 -2.976119,-0.59523 -4.124687,-1.84352 -6.428572,-3.57143"
       id="path5714"
       inkscape:connector-curvature="0" />
    <path
       style="fill:none;stroke:#000000;stroke-width:1px;stroke-linecap:butt;stroke-linejoin:miter;stroke-opacity:1"
       d="m 95,545.21932 c 1.73065,-1.93753 3.831978,-0.33782 5.71429,-0.71428 0.7383,-0.14766 1.40455,-0.56663 2.14285,-0.71429 0.46695,-0.0934 0.9666,0.1155 1.42857,0 0.73045,-0.18261 1.61046,-1.24668 2.14286,-0.71428 0.16836,0.16836 0.13207,0.51618 0,0.71428 -2.65749,3.98624 -0.26225,-1.61834 -2.85714,3.57143 -1.38155,2.7631 -2.01018,5.60704 -2.85714,8.57143 -0.47619,1.66667 -0.918819,3.34329 -1.428576,5 -0.442848,1.43926 -1.032357,2.83293 -1.428571,4.28571 -0.319438,1.17128 -0.450921,2.38629 -0.714286,3.57143 -0.212959,0.95832 -0.552896,1.88881 -0.714285,2.85715 -0.07829,0.46971 0,0.95238 0,1.42857 0,0.23809 -0.238096,0.71428 0,0.71428 0.336717,0 0.434119,-0.5275 0.714285,-0.71428 0.442981,-0.29532 1.05211,-0.33783 1.428572,-0.71429 0.607026,-0.60702 0.952381,-1.42857 1.428571,-2.14286 1.53068,-2.29601 2.10834,-3.70738 5,-4.28571 0.46694,-0.0934 0.9666,-0.11549 1.42857,0 0.5165,0.12913 1.05211,0.33782 1.42857,0.71429 2.67965,2.67965 0.45192,1.31684 2.14286,3.57142 0.40406,0.53875 0.95238,0.95239 1.42857,1.42858 0.13947,0.13947 0.90307,1.23978 1.42857,0.71428 0.16836,-0.16836 -0.10648,-0.50132 0,-0.71428 0.15059,-0.30117 0.47619,-0.47619 0.71429,-0.71429"
       id="path5716"
       inkscape:connector-curvature="0" />
    <path
       style="fill:none;stroke:#000000;stroke-width:1px;stroke-linecap:butt;stroke-linejoin:miter;stroke-opacity:1"
       d="m 54.285714,553.79075 c -3.367175,-0.20425 0.841794,2.72964 0,3.57143 -0.168358,0.16836 -0.714285,0.2381 -0.714285,0 0,-1.21405 0.47619,-2.38095 0.714285,-3.57143 z"
       id="path5718"
       inkscape:connector-curvature="0" />
  </g>
</svg>
